<svg width="24" height="24" viewBox="0 0 24 24" class="Zi Zi--EditSurround" fill="currentColor" xmlns="http://www.w3.org/2000/svg"><path fill-rule="evenodd" d="M3.55 5.97a2.415 2.415 0 0 1 2.415-2.416h7.56a.75.75 0 0 1 0 1.5h-7.56a.915.915 0 0 0-.915.915v12.072c0 .505.41.915.915.915h12.074c.506 0 .915-.41.915-.915v-7.557a.75.75 0 0 1 1.5 0v7.557a2.415 2.415 0 0 1-2.415 2.415H5.965A2.415 2.415 0 0 1 3.55 18.04V5.969Z" clip-rule="evenodd"></path><path fill-rule="evenodd" d="M20.239 3.77a.75.75 0 0 1 0 1.06l-8.206 8.206a.75.75 0 0 1-1.06-1.06l8.205-8.206a.75.75 0 0 1 1.06 0Z" clip-rule="evenodd"></path></svg>