<svg width="1.2em" height="1.2em" viewBox="0 0 24 24" class="Zi Zi--Deliver Button-zi" fill="currentColor" xmlns="http://www.w3.org/2000/svg"><g fill-rule="evenodd" clip-rule="evenodd"><path d="M7.821 12a.75.75 0 0 1 .75-.75h6.857a.75.75 0 0 1 0 1.5H8.571a.75.75 0 0 1-.75-.75ZM8.965 8a.75.75 0 0 1 .75-.75h4.571a.75.75 0 0 1 0 1.5H9.715a.75.75 0 0 1-.75-.75Z"></path><path d="M7.527 3.15a2.35 2.35 0 0 0-2.309 1.91L3.165 15.84a.85.85 0 0 0-.015.16v2.5a2.35 2.35 0 0 0 2.35 2.35h13a2.35 2.35 0 0 0 2.35-2.35V16a.848.848 0 0 0-.015-.16L18.78 5.06a2.35 2.35 0 0 0-2.308-1.91H7.527Zm0 1.7a.65.65 0 0 0-.639.528l-1.88 9.872h13.984l-1.88-9.872a.65.65 0 0 0-.64-.528H7.528Z"></path></g></svg>